# xmcd
#
# Track frame offsets:
#	150
#	14333
#	30275
#	41383
#
# Disc length: 740 seconds
#
# Revision: 1
# Processed by: cddbd v1.4PL0 Copyright (c) Steve Scherf et al.
# Submitted via: audiograbber 1.81.02
#
DISCID=1f02e204
DTITLE=Klostertaler - Die längste Nacht der Welt
DYEAR=2000
DGENRE=
TTITLE0=Die längste Nacht der Welt (Radio-Mix)
TTITLE1=Die längste Nacht der Welt (Party-Mix)
TTITLE2=Die längste Nacht der Welt (Instrumental)
TTITLE3=Die längste Nacht der Welt (Karaoke)
EXTD=
EXTT0=
EXTT1=
EXTT2=
EXTT3=
PLAYORDER=
